<svg id="visual" viewBox="0 0 400 900" width="400" height="900" xmlns="http://www.w3.org/2000/svg" xmlns:xlink="http://www.w3.org/1999/xlink" version="1.1"><path d="M0 154L6 160C12 166 24 178 36.2 170.5C48.3 163 60.7 136 72.8 142C85 148 97 187 109 205C121 223 133 220 145.2 208C157.3 196 169.7 175 181.8 170.5C194 166 206 178 218.2 169C230.3 160 242.7 130 254.8 133C267 136 279 172 291 191.5C303 211 315 214 327.2 215.5C339.3 217 351.7 217 363.8 217C376 217 388 217 394 217L400 217L400 0L394 0C388 0 376 0 363.8 0C351.7 0 339.3 0 327.2 0C315 0 303 0 291 0C279 0 267 0 254.8 0C242.7 0 230.3 0 218.2 0C206 0 194 0 181.8 0C169.7 0 157.3 0 145.2 0C133 0 121 0 109 0C97 0 85 0 72.8 0C60.7 0 48.3 0 36.2 0C24 0 12 0 6 0L0 0Z" fill="#220a48"></path><path d="M0 460L6 473.5C12 487 24 514 36.2 500.5C48.3 487 60.7 433 72.8 415C85 397 97 415 109 434.5C121 454 133 475 145.2 481C157.3 487 169.7 478 181.8 469C194 460 206 451 218.2 415C230.3 379 242.7 316 254.8 322C267 328 279 403 291 424C303 445 315 412 327.2 413.5C339.3 415 351.7 451 363.8 466C376 481 388 475 394 472L400 469L400 215L394 215C388 215 376 215 363.8 215C351.7 215 339.3 215 327.2 213.5C315 212 303 209 291 189.5C279 170 267 134 254.8 131C242.7 128 230.3 158 218.2 167C206 176 194 164 181.8 168.5C169.7 173 157.3 194 145.2 206C133 218 121 221 109 203C97 185 85 146 72.8 140C60.7 134 48.3 161 36.2 168.5C24 176 12 164 6 158L0 152Z" fill="#41104f"></path><path d="M0 541L6 559C12 577 24 613 36.2 598C48.3 583 60.7 517 72.8 503.5C85 490 97 529 109 557.5C121 586 133 604 145.2 613C157.3 622 169.7 622 181.8 601C194 580 206 538 218.2 493C230.3 448 242.7 400 254.8 407.5C267 415 279 478 291 508C303 538 315 535 327.2 538C339.3 541 351.7 550 363.8 548.5C376 547 388 535 394 529L400 523L400 467L394 470C388 473 376 479 363.8 464C351.7 449 339.3 413 327.2 411.5C315 410 303 443 291 422C279 401 267 326 254.8 320C242.7 314 230.3 377 218.2 413C206 449 194 458 181.8 467C169.7 476 157.3 485 145.2 479C133 473 121 452 109 432.5C97 413 85 395 72.8 413C60.7 431 48.3 485 36.2 498.5C24 512 12 485 6 471.5L0 458Z" fill="#5c1a55"></path><path d="M0 748L6 752.5C12 757 24 766 36.2 769C48.3 772 60.7 769 72.8 776.5C85 784 97 802 109 805C121 808 133 796 145.2 782.5C157.3 769 169.7 754 181.8 745C194 736 206 733 218.2 733C230.3 733 242.7 736 254.8 733C267 730 279 721 291 737.5C303 754 315 796 327.2 796C339.3 796 351.7 754 363.8 734.5C376 715 388 718 394 719.5L400 721L400 521L394 527C388 533 376 545 363.8 546.5C351.7 548 339.3 539 327.2 536C315 533 303 536 291 506C279 476 267 413 254.8 405.5C242.7 398 230.3 446 218.2 491C206 536 194 578 181.8 599C169.7 620 157.3 620 145.2 611C133 602 121 584 109 555.5C97 527 85 488 72.8 501.5C60.7 515 48.3 581 36.2 596C24 611 12 575 6 557L0 539Z" fill="#75265a"></path><path d="M0 901L6 901C12 901 24 901 36.2 901C48.3 901 60.7 901 72.8 901C85 901 97 901 109 901C121 901 133 901 145.2 901C157.3 901 169.7 901 181.8 901C194 901 206 901 218.2 901C230.3 901 242.7 901 254.8 901C267 901 279 901 291 901C303 901 315 901 327.2 901C339.3 901 351.7 901 363.8 901C376 901 388 901 394 901L400 901L400 719L394 717.5C388 716 376 713 363.8 732.5C351.7 752 339.3 794 327.2 794C315 794 303 752 291 735.5C279 719 267 728 254.8 731C242.7 734 230.3 731 218.2 731C206 731 194 734 181.8 743C169.7 752 157.3 767 145.2 780.5C133 794 121 806 109 803C97 800 85 782 72.8 774.5C60.7 767 48.3 770 36.2 767C24 764 12 755 6 750.5L0 746Z" fill="#8c355e"></path></svg>